<?xml version="1.0" encoding="utf-8"?>
<!-- Generator: Adobe Illustrator 18.1.1, SVG Export Plug-In . SVG Version: 6.00 Build 0)  -->
<svg version="1.1" id="Layer_1" xmlns="http://www.w3.org/2000/svg" xmlns:xlink="http://www.w3.org/1999/xlink" x="0px" y="0px"
	 viewBox="0 127 612 665" enable-background="new 0 127 612 665" xml:space="preserve">
<g id="bg">
</g>
<g id="Layer_1_1_">
	<g>
		<path fill="#FFFFFF" d="M220.1,394.1c17,0,29-11.3,29-27.1c0-16.1-12-27.4-29-27.4c-16.7,0-29,11.3-29,27.4
			C191.1,382.7,203.1,394.1,220.1,394.1z"/>
		<path fill="#FFFFFF" d="M406.7,405.1c-26.1,0.3-45.6,12.6-56,36.2c-7.9-22.7-27.1-36.2-53.2-36.2c-23,0.3-40.9,9.4-51.9,28V413
			h-51v161.2c0,12.3-6.3,17.9-15.7,17.6c-6,0-12-2.2-17.9-5.7L148,622c11,6.9,25.2,10.4,40,10.4c32.4,0.3,57.9-18.9,57.9-54.8V481
			c2.5-17.9,13.9-30.2,31.2-30.9c16.7,0,27.1,11.6,27.1,30.5v86.6h51v-79.3c0-21.7,12-37.5,30.9-38.1c16.7,0,27.4,11.6,27.4,30.5
			v86.9H464V466.5C464,429,441.7,405.1,406.7,405.1z"/>
	</g>
</g>
</svg>
